<svg width="28.000000" height="28.000000" viewBox="0 0 28 28" fill="none" xmlns="http://www.w3.org/2000/svg" xmlns:xlink="http://www.w3.org/1999/xlink">
	<desc>
			Created with Pixso.
	</desc>
	<defs>
		<clipPath id="clip3_849">
			<rect id="facebook 1" rx="0.000000" width="27.000000" height="27.000000" transform="translate(0.500000 0.500000)" fill="white" fill-opacity="0"/>
		</clipPath>
	</defs>
	<rect id="facebook 1" rx="0.000000" width="27.000000" height="27.000000" transform="translate(0.500000 0.500000)" fill="#FFFFFF" fill-opacity="0"/>
	<g clip-path="url(#clip3_849)">
		<path id="Vector" d="M24.5 0L3.5 0C1.56 0 0 1.56 0 3.5L0 24.5C0 26.43 1.56 28 3.5 28L14 28L14 18.37L10.5 18.37L10.5 14L14 14L14 10.5C14 7.6 16.35 5.25 19.25 5.25L22.75 5.25L22.75 9.62L21 9.62C20.03 9.62 19.25 9.53 19.25 10.5L19.25 14L23.62 14L21.87 18.37L19.25 18.37L19.25 28L24.5 28C26.43 28 28 26.43 28 24.5L28 3.5C28 1.56 26.43 0 24.5 0Z" fill="#55A630" fill-opacity="1.000000" fill-rule="nonzero"/>
	</g>
</svg>
