<svg width="41.000000" height="41.000000" viewBox="0 0 41 41" fill="none" xmlns="http://www.w3.org/2000/svg" xmlns:xlink="http://www.w3.org/1999/xlink">
	<desc>
			Created with Pixso.
	</desc>
	<defs>
		<clipPath id="clip3_872">
			<rect id="russia 1" rx="0.000000" width="40.000000" height="40.000000" transform="translate(0.500000 0.500000)" fill="white" fill-opacity="0"/>
		</clipPath>
	</defs>
	<rect id="russia 1" rx="0.000000" width="40.000000" height="40.000000" transform="translate(0.500000 0.500000)" fill="#FFFFFF" fill-opacity="0"/>
	<g clip-path="url(#clip3_872)">
		<path id="Vector" d="M0 6.83L0 15.94L0 25.05L0 34.16L41 34.16L41 25.05L41 15.94L41 6.83L0 6.83Z" fill="#F0F0F0" fill-opacity="1.000000" fill-rule="nonzero"/>
		<path id="Vector" d="M0 6.83L41 6.83L41 34.16L0 34.16L0 6.83Z" fill="#0052B4" fill-opacity="1.000000" fill-rule="evenodd"/>
		<path id="Vector" d="M0 6.83L41 6.83L41 15.94L0 15.94L0 6.83Z" fill="#F0F0F0" fill-opacity="1.000000" fill-rule="evenodd"/>
		<path id="Vector" d="M0 25.05L41 25.05L41 34.16L0 34.16L0 25.05Z" fill="#D80027" fill-opacity="1.000000" fill-rule="evenodd"/>
	</g>
</svg>
