<svg width="29.000000" height="29.000000" viewBox="0 0 29 29" fill="none" xmlns="http://www.w3.org/2000/svg" xmlns:xlink="http://www.w3.org/1999/xlink">
	<desc>
			Created with Pixso.
	</desc>
	<defs>
		<clipPath id="clip3_854">
			<rect id="instagram 1" rx="0.000000" width="28.000000" height="28.000000" transform="translate(0.500000 0.500000)" fill="white" fill-opacity="0"/>
		</clipPath>
	</defs>
	<rect id="instagram 1" rx="0.000000" width="28.000000" height="28.000000" transform="translate(0.500000 0.500000)" fill="#FFFFFF" fill-opacity="0"/>
	<g clip-path="url(#clip3_854)">
		<path id="Vector" d="M21.14 0L7.85 0C3.52 0 0 3.52 0 7.85L0 21.15C0 25.47 3.52 29 7.85 29L21.14 29C25.47 29 29 25.47 29 21.15L29 7.85C29 3.52 25.47 0 21.14 0L21.14 0ZM14.5 22.42C10.12 22.42 6.57 18.87 6.57 14.5C6.57 10.12 10.12 6.57 14.5 6.57C18.87 6.57 22.42 10.12 22.42 14.5C22.42 18.87 18.87 22.42 14.5 22.42ZM22.61 8.44C21.32 8.44 20.27 7.38 20.27 6.09C20.27 4.8 21.32 3.75 22.61 3.75C23.91 3.75 24.96 4.8 24.96 6.09C24.96 7.38 23.91 8.44 22.61 8.44Z" fill="#55A630" fill-opacity="1.000000" fill-rule="nonzero"/>
		<path id="Vector" d="M14.5 8.27C11.06 8.27 8.27 11.06 8.27 14.5C8.27 17.93 11.06 20.72 14.5 20.72C17.93 20.72 20.72 17.93 20.72 14.5C20.72 11.06 17.93 8.27 14.5 8.27Z" fill="#55A630" fill-opacity="1.000000" fill-rule="nonzero"/>
		<path id="Vector" d="M22.61 5.45C22.26 5.45 21.97 5.74 21.97 6.09C21.97 6.45 22.26 6.74 22.61 6.74C22.97 6.74 23.26 6.45 23.26 6.09C23.26 5.74 22.97 5.45 22.61 5.45Z" fill="#55A630" fill-opacity="1.000000" fill-rule="nonzero"/>
	</g>
</svg>
