<svg width="28.000000" height="28.000000" viewBox="0 0 28 28" fill="none" xmlns="http://www.w3.org/2000/svg" xmlns:xlink="http://www.w3.org/1999/xlink">
	<desc>
			Created with Pixso.
	</desc>
	<defs/>
	<path id="Vector" d="M27.45 22.26L24.35 20.19L21.59 18.35C21.05 18 20.34 18.11 19.95 18.62L18.24 20.81C17.87 21.29 17.21 21.43 16.69 21.13C15.53 20.49 14.16 19.88 11.13 16.86C8.11 13.83 7.5 12.46 6.86 11.3C6.56 10.78 6.7 10.12 7.18 9.75L9.37 8.04C9.88 7.65 9.99 6.94 9.64 6.4L7.86 3.73L5.73 0.54C5.37 0 4.64 -0.17 4.08 0.17L1.63 1.64C0.97 2.03 0.48 2.66 0.27 3.4C-0.4 5.85 -0.53 11.24 8.11 19.88C16.75 28.52 22.14 28.39 24.59 27.72C25.33 27.51 25.96 27.02 26.35 26.36L27.82 23.91C28.16 23.35 27.99 22.62 27.45 22.26Z" fill="#55A630" fill-opacity="1.000000" fill-rule="nonzero"/>
	<path id="Vector" d="M15.92 4.34C20.45 4.34 24.13 8.02 24.13 12.55C24.13 12.81 24.35 13.03 24.61 13.03C24.88 13.03 25.1 12.81 25.1 12.55C25.09 7.48 20.99 3.38 15.92 3.37C15.66 3.37 15.44 3.59 15.44 3.86C15.44 4.12 15.66 4.34 15.92 4.34Z" fill="#55A630" fill-opacity="1.000000" fill-rule="nonzero"/>
	<path id="Vector" d="M15.93 7.24C18.86 7.24 21.23 9.61 21.24 12.55C21.24 12.81 21.45 13.03 21.72 13.03C21.99 13.03 22.2 12.81 22.2 12.55C22.2 9.08 19.39 6.27 15.93 6.27C15.66 6.27 15.44 6.49 15.44 6.75C15.44 7.02 15.66 7.24 15.93 7.24Z" fill="#55A630" fill-opacity="1.000000" fill-rule="nonzero"/>
	<path id="Vector" d="M15.92 10.13C17.26 10.13 18.34 11.21 18.34 12.55C18.34 12.81 18.55 13.03 18.82 13.03C19.09 13.03 19.3 12.81 19.3 12.55C19.3 10.68 17.79 9.17 15.92 9.17C15.66 9.17 15.44 9.38 15.44 9.65C15.44 9.92 15.66 10.13 15.92 10.13Z" fill="#55A630" fill-opacity="1.000000" fill-rule="nonzero"/>
</svg>
